<svg width="45" height="41" viewBox="0 0 45 41" fill="none" xmlns="http://www.w3.org/2000/svg">
<path d="M35.0581 12.8721C35.0581 13.8836 34.6171 14.8537 33.8321 15.569C33.047 16.2842 31.9823 16.686 30.8721 16.686C29.7619 16.686 28.6971 16.2842 27.9121 15.569C27.1271 14.8537 26.686 13.8836 26.686 12.8721C26.686 11.8606 27.1271 10.8905 27.9121 10.1752C28.6971 9.45996 29.7619 9.05814 30.8721 9.05814C31.9823 9.05814 33.047 9.45996 33.8321 10.1752C34.6171 10.8905 35.0581 11.8606 35.0581 12.8721Z" fill="white"/>
<path fill-rule="evenodd" clip-rule="evenodd" d="M22.3807 0H22.6193C27.4521 0 31.2384 1.13665e-07 34.1937 0.362326C37.216 0.732279 39.6021 1.50651 41.4753 3.21135C43.3486 4.91809 44.1963 7.09205 44.6023 9.84763C45 12.5384 45 15.9881 45 20.3913V20.5591C45 24.1995 45 27.1782 44.7823 29.6039C44.5647 32.0448 44.1188 34.0796 43.1184 35.773C42.6788 36.5186 42.1347 37.188 41.4753 37.7887C39.6021 39.4954 37.216 40.2677 34.1916 40.6377C31.2384 41 27.4521 41 22.6193 41H22.3807C17.5479 41 13.7616 41 10.8063 40.6377C7.78395 40.2677 5.39791 39.4935 3.52465 37.7887C1.86488 36.2764 1.00674 34.3942 0.552558 32.0563C0.102558 29.7622 0.0209302 26.9074 0.00418599 23.3643C-5.40925e-08 22.4623 0 21.5088 0 20.5019V20.3913C0 15.9881 1.24754e-07 12.5384 0.397675 9.84572C0.803721 7.09205 1.65349 4.91809 3.52465 3.21135C5.39791 1.5046 7.78395 0.732279 10.8084 0.362326C13.7616 1.13665e-07 17.5479 0 22.3807 0ZM11.2249 3.19609C8.55 3.52409 6.93628 4.14958 5.74535 5.23465C4.55233 6.32163 3.86791 7.79 3.50791 10.229C3.14372 12.7081 3.13953 15.9652 3.13953 20.5V22.1095L5.23465 20.439C6.15364 19.706 7.34404 19.3187 8.56472 19.3556C9.7854 19.3924 10.9451 19.8506 11.8088 20.6373L20.7879 28.8182C21.4847 29.4529 22.4049 29.8434 23.3865 29.9208C24.3681 29.9983 25.3483 29.7577 26.1544 29.2416L26.7781 28.8411C27.9412 28.0965 29.3471 27.7335 30.7661 27.8114C32.185 27.8894 33.5329 28.4037 34.5893 29.2702L40.5126 34.1273C41.1112 32.9869 41.4649 31.488 41.6533 29.3732C41.8584 27.0753 41.8605 24.211 41.8605 20.5C41.8605 15.9652 41.8563 12.7081 41.4921 10.229C41.1321 7.79 40.4456 6.31972 39.2547 5.23274C38.0616 4.14767 36.45 3.52409 33.773 3.19609C31.0521 2.86428 27.4772 2.86047 22.5 2.86047C17.5228 2.86047 13.9458 2.86428 11.2249 3.19609Z" fill="white"/>
</svg>
