<svg width="45" height="43" viewBox="0 0 45 43" fill="none" xmlns="http://www.w3.org/2000/svg">
<path d="M15.75 6.78947C15.75 4.98879 16.4612 3.26186 17.727 1.98859C18.9929 0.715318 20.7098 0 22.5 0C24.2902 0 26.0071 0.715318 27.273 1.98859C28.5388 3.26186 29.25 4.98879 29.25 6.78947C29.25 8.59015 28.5388 10.3171 27.273 11.5904C26.0071 12.8636 24.2902 13.5789 22.5 13.5789C20.7098 13.5789 18.9929 12.8636 17.727 11.5904C16.4612 10.3171 15.75 8.59015 15.75 6.78947ZM37.125 2.26316C35.6332 2.26316 34.2024 2.85926 33.1475 3.92032C32.0926 4.98138 31.5 6.42049 31.5 7.92105C31.5 9.42162 32.0926 10.8607 33.1475 11.9218C34.2024 12.9828 35.6332 13.5789 37.125 13.5789C38.6168 13.5789 40.0476 12.9828 41.1025 11.9218C42.1574 10.8607 42.75 9.42162 42.75 7.92105C42.75 6.42049 42.1574 4.98138 41.1025 3.92032C40.0476 2.85926 38.6168 2.26316 37.125 2.26316ZM7.875 2.26316C6.38316 2.26316 4.95242 2.85926 3.89752 3.92032C2.84263 4.98138 2.25 6.42049 2.25 7.92105C2.25 9.42162 2.84263 10.8607 3.89752 11.9218C4.95242 12.9828 6.38316 13.5789 7.875 13.5789C9.36684 13.5789 10.7976 12.9828 11.8525 11.9218C12.9074 10.8607 13.5 9.42162 13.5 7.92105C13.5 6.42049 12.9074 4.98138 11.8525 3.92032C10.7976 2.85926 9.36684 2.26316 7.875 2.26316ZM17.1562 15.8421C15.8882 15.8421 14.6721 16.3488 13.7754 17.2507C12.8787 18.1526 12.375 19.3758 12.375 20.6513V32.8158C12.375 35.5168 13.4417 38.1072 15.3405 40.0171C17.2394 41.927 19.8147 43 22.5 43C25.1853 43 27.7607 41.927 29.6595 40.0171C31.5583 38.1072 32.625 35.5168 32.625 32.8158V20.6513C32.625 19.3758 32.1213 18.1526 31.2246 17.2507C30.3279 16.3488 29.1118 15.8421 27.8438 15.8421H17.1562ZM10.125 20.6513C10.125 18.8408 10.8022 17.1876 11.916 15.936C11.6041 15.8735 11.2868 15.842 10.9688 15.8421H4.78125C3.51318 15.8421 2.29705 16.3488 1.4004 17.2507C0.503738 18.1526 3.00523e-07 19.3758 3.00523e-07 20.6513V31.6842C-0.000375361 33.0521 0.351444 34.3968 1.0212 35.5873C1.69095 36.7779 2.65581 37.7737 3.8218 38.4777C4.9878 39.1818 6.31519 39.5701 7.67471 39.6049C9.03424 39.6397 10.3795 39.3197 11.5796 38.6762C10.6215 36.8734 10.1218 34.8601 10.125 32.8158V20.6513ZM34.875 32.8158C34.875 34.9341 34.3485 36.9291 33.4204 38.6762C34.6205 39.3197 35.9658 39.6397 37.3253 39.6049C38.6848 39.5701 40.0122 39.1818 41.1782 38.4777C42.3442 37.7737 43.3091 36.7779 43.9788 35.5873C44.6486 34.3968 45.0004 33.0521 45 31.6842V20.6513C45 19.3758 44.4963 18.1526 43.5996 17.2507C42.7029 16.3488 41.4868 15.8421 40.2188 15.8421H34.0312C33.7065 15.8429 33.3908 15.8742 33.084 15.936C34.2391 17.2316 34.8771 18.9111 34.875 20.6513V32.8158Z" fill="black"/>
</svg>
