<svg width="37" height="43" viewBox="0 0 37 43" fill="none" xmlns="http://www.w3.org/2000/svg">
<path d="M6.6875 0.9375C7.07704 0.9375 7.45062 1.09224 7.72606 1.36769C8.00151 1.64313 8.15625 2.01671 8.15625 2.40625V3.875H14.0312V2.40625C14.0312 2.01671 14.186 1.64313 14.4614 1.36769C14.7369 1.09224 15.1105 0.9375 15.5 0.9375C15.8895 0.9375 16.2631 1.09224 16.5386 1.36769C16.814 1.64313 16.9688 2.01671 16.9688 2.40625V3.875H22.8438V2.40625C22.8438 2.01671 22.9985 1.64313 23.2739 1.36769C23.5494 1.09224 23.923 0.9375 24.3125 0.9375C24.702 0.9375 25.0756 1.09224 25.3511 1.36769C25.6265 1.64313 25.7812 2.01671 25.7812 2.40625V3.875C26.9499 3.875 28.0706 4.33923 28.8969 5.16556C29.7233 5.99189 30.1875 7.11264 30.1875 8.28125V15.7307C28.6621 15.9953 27.2562 16.726 26.1631 17.8223L22.2239 21.7644C21.9751 21.5907 21.6785 21.4983 21.375 21.5H9.625C9.23546 21.5 8.86188 21.6547 8.58644 21.9302C8.31099 22.2056 8.15625 22.5792 8.15625 22.9688C8.15625 23.3583 8.31099 23.7319 8.58644 24.0073C8.86188 24.2828 9.23546 24.4375 9.625 24.4375H19.5508L13.5671 30.4183C13.2009 30.7864 12.8621 31.1781 12.5507 31.5933C12.505 31.2392 12.3319 30.9138 12.0638 30.6781C11.7956 30.4424 11.4508 30.3124 11.0938 30.3125H9.625C9.23546 30.3125 8.86188 30.4672 8.58644 30.7427C8.31099 31.0181 8.15625 31.3917 8.15625 31.7812C8.15625 32.1708 8.31099 32.5444 8.58644 32.8198C8.86188 33.0953 9.23546 33.25 9.625 33.25H11.0938C11.2504 33.2503 11.4061 33.2255 11.5549 33.1766C11.1624 33.9382 10.8588 34.7425 10.6502 35.5736L9.76013 39.1309C9.51353 40.1049 9.5856 41.1324 9.96575 42.0625H5.21875C4.05014 42.0625 2.92939 41.5983 2.10306 40.7719C1.27673 39.9456 0.8125 38.8249 0.8125 37.6562V8.28125C0.8125 7.11264 1.27673 5.99189 2.10306 5.16556C2.92939 4.33923 4.05014 3.875 5.21875 3.875V2.40625C5.21875 2.01671 5.37349 1.64313 5.64894 1.36769C5.92438 1.09224 6.29796 0.9375 6.6875 0.9375ZM8.15625 14.1562C8.15625 14.5458 8.31099 14.9194 8.58644 15.1948C8.86188 15.4703 9.23546 15.625 9.625 15.625H21.375C21.7645 15.625 22.1381 15.4703 22.4136 15.1948C22.689 14.9194 22.8438 14.5458 22.8438 14.1562C22.8438 13.7667 22.689 13.3931 22.4136 13.1177C22.1381 12.8422 21.7645 12.6875 21.375 12.6875H9.625C9.23546 12.6875 8.86188 12.8422 8.58644 13.1177C8.31099 13.3931 8.15625 13.7667 8.15625 14.1562ZM28.2429 19.8991C29.1026 19.0394 30.2686 18.5564 31.4844 18.5564C32.7002 18.5564 33.8662 19.0394 34.7259 19.8991C35.5856 20.7588 36.0686 21.9248 36.0686 23.1406C36.0686 24.3564 35.5856 25.5224 34.7259 26.3821L22.127 38.9781C21.0798 40.0214 19.7708 40.7632 18.3376 41.1254L14.7803 42.0155C14.48 42.0908 14.1653 42.0869 13.8669 42.0044C13.5685 41.9218 13.2966 41.7634 13.0776 41.5444C12.8587 41.3255 12.7002 41.0536 12.6177 40.7552C12.5351 40.4568 12.5313 40.1421 12.6066 39.8418L13.4996 36.2874C13.8579 34.8509 14.5982 33.5408 15.6439 32.498L28.2429 19.8991Z" fill="url(#paint0_linear_0_195)"/>
<defs>
<linearGradient id="paint0_linear_0_195" x1="18.4406" y1="0.9375" x2="18.4406" y2="42.0693" gradientUnits="userSpaceOnUse">
<stop/>
<stop offset="1" stop-color="#666666"/>
</linearGradient>
</defs>
</svg>
